<svg xmlns="http://www.w3.org/2000/svg" fill="#B972FF" viewBox="0 0 512 512" id="football-studs"><path d="m495.71 185.77-26-58.42v-.09L463.38 113a2.56 2.56 0 0 1-.11-.24c-6.58-13.48-32-41.18-55-43.85-6.86-.79-12.28-1.42-17.28 1s-7.79 6.92-11.5 12.69c-1 1.56-3.66 5.7-4.49 44.92-.27 2-5.51 9.56-19.51 19-12.54 8.46-23.86 12.86-28.76 12.92l-18.49-1.86c3.26-23.1-12.64-54-32.75-71.89a27.09 27.09 0 0 0-42.69 9l-.06.13-28.76 66.93a95.31 95.31 0 0 0-14.41 12.49c-.78.81-1.07 1.11-14.55 22.59-4.89 7.79-10.74 17.14-16.94 27-12.28 19.61-26.35 42.07-36.66 58.36l-.07.11-1.52 2.39-.47.73-1 1.63-1 1.62-.42.66c-3.76 5.91-6.72 10.49-8.47 13.09-.17.25-.31.47-.46.68l-.14.21c-.09.14-.17.24-.25.36s-.16.22-.22.31l-87.63 84.74-.18.17c-4.19 4.32-6 11.34-5.3 20.84.46 6.48 2.1 13.57 4.09 17.66.35.71.76 1.44 1.22 2.2a7.46 7.46 0 0 0 5.08 6.71 72.83 72.83 0 0 0 10.93 10c7.27 5.34 14.11 8 20.19 8a18.23 18.23 0 0 0 7.83-1.7l13.88-5.58 23.32 23.79a7.49 7.49 0 0 0 8.64 1.49l21.59-10.53a7.5 7.5 0 0 0 4.18-7.46L132.41 425l2.75-1.1L157 444.1a7.49 7.49 0 0 0 8.38 1.24l21.84-10.64a7.51 7.51 0 0 0 4.19-7.34l-2.16-27.15 2.56-1.24L212.94 419a7.53 7.53 0 0 0 8.44 1.3l21.8-10.63a7.49 7.49 0 0 0 4.18-7.45l-2.74-28.94 114.85-55.77 21.2 20.09a7.5 7.5 0 0 0 8.45 1.3l21.8-10.62a7.49 7.49 0 0 0 4.18-7.45l-2.76-29 4-1.95 21.35 20.24a7.5 7.5 0 0 0 8.44 1.29l21.8-10.62a7.52 7.52 0 0 0 4.19-7.45l-2.78-29.2 5.08-2.46c15.65-7.63 25.36-20 28.06-35.82 2.14-12.45-.27-26.7-6.77-40.09Zm-35.66-43.31 22 49.52a2.56 2.56 0 0 0 .11.24 62 62 0 0 1 5 14.29l-49.3 23.93c-.42-3.85-1.07-7.82-1.74-11.89-3.78-22.74-8-48.32 23.93-76.09ZM297.7 171.65l27.84 2.8h.6c10.71.22 26.72-8 38.13-15.79 9.36-6.37 25.14-18.8 25.67-30.48a1.15 1.15 0 0 0 0-.19c.32-15.21 1.34-33.63 2.47-37.83 1.72-2.68 4.09-6.28 5.1-6.78s6 .06 9 .4c15.85 1.83 37.74 24.3 43.23 35.41l4 9c-42.07 34.28-36.52 68-32.41 92.79a119.59 119.59 0 0 1 2 16.51l-53 25.74C366.18 256 357.68 251.09 354 249c-10.9-6.28-25.57-12.06-41.1-18.17-14.58-5.74-29.66-11.67-40.47-17.76-9.56-5.38-12.72-9.15-13.71-11.32l29.39-31.06 9.53 1Zm59 98.19-27.58 13.38q-3.66-6.9-13.92-13.05c-9.49-5.67-22.27-10.59-35.8-15.81-12.61-4.86-25.65-9.88-34.92-15.26-6.37-3.7-10.32-7.23-11.44-10.16l15.11-16c9.77 12.3 33.22 21.54 59.32 31.81 14.34 5.64 29.16 11.48 39.1 17.2 5.97 3.49 8.87 6.14 10.1 7.89Zm-110.22-169a12.09 12.09 0 0 1 19-3.94c18.63 16.58 30.65 43 27.81 59.19l-48.89-4.89h-.61a81.4 81.4 0 0 0-19.66 1.64ZM129 298.33l.24-.38c.33-.51.66-1 1-1.58l.55-.85.83-1.31.48-.76 1.3-2.05.5-.79 1-1.54c.18-.29.37-.58.55-.88l1.39-2.19.46-.74 1.12-1.76c.18-.29.36-.58.55-.87.45-.73.92-1.46 1.39-2.2l.18-.3 1.67-2.64.52-.83 1-1.65.76-1.21 1.66-2.63 1.77-2.82c.12-.19.25-.38.37-.58l1.62-2.58c.09-.13.17-.27.25-.4.62-1 1.24-2 1.87-3l.24-.39.36-.57 14.6 2a7 7 0 0 0 1 .07 7.5 7.5 0 0 0 1-14.93l-7.86-1.06q1.56-2.5 3.13-5l.1-.18a976.6 976.6 0 0 1 4-6.33l14.68 2a7 7 0 0 0 1 .07 7.5 7.5 0 0 0 1-14.93l-7.95-1.08 7.79-12.46 14.68 2a7 7 0 0 0 1 .07 7.5 7.5 0 0 0 1-14.93l-7.92-1.14c.21-.32.4-.62.59-.93l.78-1.24.64-1c2.56-4.05 4.17-6.56 4.8-7.49A76.83 76.83 0 0 1 213 173.8a7.76 7.76 0 0 0 1.7-1.08 43.84 43.84 0 0 1 5.62-2.93q1.26-.54 2.52-1c5.88-2.08 11.91-2.69 18.86-2.66h1.5l26.08 2.63L219.91 221l-46.52 49.16c-5.87 6.35-24.19 24.57-45.41 29.74.29-.52.63-1.04 1.02-1.57Zm-12.66 17.93h.65c30.81 0 57.28-24.95 67.37-35.88l38-40.14c9 11.65 29.89 19.71 51.68 28.11 12.34 4.76 25.11 9.68 33.49 14.69 1.75 1 6.52 4.07 8.07 6.75l-124.37 60.35c-6.81-6.63-21.82-13.66-58.35-16.92-12-1.07-23.55-1.48-32.46-1.62Zm-85 103.1a45.41 45.41 0 0 1-2-10.68c-.42-6 .65-8.77 1.09-9.32l54.55-52.75a464.91 464.91 0 0 1 46.65 1.55c25 2.24 37.74 6.2 44.2 9.49L146 372.07Zm76.46 37.14L92.57 441l25.33-10.19 1.91 19.79Zm55.64-26.89-12.84-11.9 15.14-6.09.48-.21 8.57-4.16 1.28 16.2Zm56.09-25.05L206.2 392l24-11.66 1.73 18.18Zm167.74-81.39-13.34-12.64 24.06-11.68 1.74 18.25Zm57-27.49-13.48-12.77L455 271.17l1.75 18.44Zm43.45-72.32c-1.88 11-8.55 19.36-19.84 24.86l-65.26 31.68a7.44 7.44 0 0 0-2.92 1.42l-41 19.92a7.17 7.17 0 0 0-2.31 1.12l-121.22 58.86a7.44 7.44 0 0 0-3.4 1.66l-40.49 19.66a7.46 7.46 0 0 0-2.87 1.4l-28.56 13.86-24.46 9.84a7.41 7.41 0 0 0-3 1.21l-54 21.72a7.49 7.49 0 0 0-3.82 1.53l-16.71 6.72-.49.22c-1.88.91-6.58-.22-12.84-4.82q-1.77-1.31-3.36-2.69L152 385.85l.42-.19 39.84-19.34 175.44-85.15.18-.08 65.8-31.94c.14-.07.29-.13.43-.21l53.65-26c-.01.06-.03.26-.06.42Z"></path></svg>