<svg xmlns="http://www.w3.org/2000/svg" viewBox="0 0 512 512" id="football-practice"><path d="M511.83 346.23a158.4 158.4 0 0 0-27.77-82.38 156.72 156.72 0 0 0-83.35-61.42c-1.72-.54-3.41-1-5-1.47l-.19-.05a158.25 158.25 0 0 0-139.15 27.72c-5-22.67-9.32-42.65-13.16-60.26a6.41 6.41 0 0 0-.33-1.49.07.07 0 0 0 0-.05l-11.74-53.69V113a7.59 7.59 0 0 0-.41-1.85c-14.53-66.45-16-72.88-16.17-73.69a42.58 42.58 0 0 0-13.81-21.24 35.53 35.53 0 0 0-44.8 0 42.52 42.52 0 0 0-13.85 21.19c-.2.81-1.62 7.24-16.06 73.78a7.24 7.24 0 0 0-.39 1.81c-3.23 14.84-7.08 32.6-11.69 53.85v.06a7.29 7.29 0 0 0-.33 1.58c-6.3 29-14 64.47-23.37 107.78-4.1 19-8.54 39.42-13.33 61.51q-8.23 38-17.89 82.57H28.71a7.51 7.51 0 0 0-7.28 5.68L2.29 502.68A7.5 7.5 0 0 0 9.57 512h338.11a6.79 6.79 0 0 0 .78 0q2.64.09 5.28.09a157.32 157.32 0 0 0 56.26-10.5h.11a158.54 158.54 0 0 0 101.72-155.36Zm-37.93-70.6A143.33 143.33 0 0 1 496.6 343l-44.76 33.35-45.35-14.25-17.84-52.72 28.86-33.07Zm-193.47 61.44-12.77-58.53-.08-.34L288 278l20.21 31.62-16.91 54.25-4.93 2.1q-3-13.65-5.8-26.55a7.79 7.79 0 0 0 0-1.08 7.05 7.05 0 0 0-.14-1.27Zm41.5-21.17 52.88-.63 16.95 50.09-42.4 31.64-43.16-30.61Zm87.95-94.17 1.58.68.42.19c.61.26 1.22.53 1.83.82q1.64.74 3.24 1.53l1.52.75.17.09 2.05 1.06 1 .54c.7.37 1.4.75 2.09 1.14.86.48 1.72 1 2.57 1.47s1.7 1 2.54 1.53q2.54 1.53 5 3.2 4.91 3.3 9.52 7l2.14 1.75.14.12c.76.64 1.51 1.28 2.25 1.93s1.23 1.08 1.83 1.63l.78.71 1.77 1.66c.71.68 1.42 1.37 2.12 2.07q.53.51 1.05 1c.35.35.7.71 1 1.07.65.66 1.28 1.32 1.9 2l.3.33c.62.67 1.24 1.35 1.85 2s1.31 1.5 2 2.26l.33.39-43.45.52-14-41.35q2.26.98 4.46 1.91Zm-92.67-6.8a142.73 142.73 0 0 1 70.5-.57l17.87 52.81-28.86 33.07-56.25.68-20.21-31.62Zm-17.59 6-13.09 42-22.6.27q-2-9.24-3.93-18a144.14 144.14 0 0 1 39.62-24.2ZM156.54 41.47c4.09-13.45 13.91-18.25 21.77-18.25S196 28 200.08 41.47c.61 2.7 6.46 29.43 14.81 67.68-12.5 4.78-25.45 7.47-36.31 7.47s-24.27-2.76-36.75-7.5c8.3-38.22 14.1-64.93 14.71-67.65Zm-17.92 82.47c13.54 4.88 28 7.7 40 7.7s26-2.76 39.56-7.68c2.83 13 5.89 27 9.08 41.55a113.99 113.99 0 0 1-7.3 3.72 97 97 0 0 1-83.06.07q-3.66-1.68-7.28-3.69c3.13-14.61 6.18-28.61 9-41.67ZM106 274.53c6.7-30.92 13.72-63.28 20.31-93.7a112.42 112.42 0 0 0 104.27-.1c4.2 19.21 8.56 39.18 12.91 59.07l.06.26q1.89 8.69 3.78 17.32l.06.27 1.26 5.76c.34 1.58.69 3.16 1 4.74a178.29 178.29 0 0 1-16.49 7.64c-.14.21-.26.42-.39.63-2 .82-4.11 1.61-6.17 2.34q-7.12 2.53-14.33 4.4a161.62 161.62 0 0 1-40.82 5.24 165.45 165.45 0 0 1-65.14-13.54l-.38-.17Zm-3 15.22h.06a179.77 179.77 0 0 0 68.37 13.64 176.34 176.34 0 0 0 33.57-3.2 179.88 179.88 0 0 0 17.91-4.41 191.82 191.82 0 0 0 30.15-12l11.13 50.94c0 .16.07.31.1.47a179.61 179.61 0 0 1-43.41 18.18q-5.13 1.39-10.31 2.42-7.31 1.47-14.71 2.24a2 2 0 0 1-.24 0 160.51 160.51 0 0 1-16.86.88c-29.49 0-58.23-8-85.52-23.73h-.07Zm-13.47 60.58.37.21c28.35 15.53 58.19 23.39 88.85 23.39a176.38 176.38 0 0 0 18-.91h.23q7.35-.75 14.61-2.13a.85.85 0 0 0 .23 0q3-.56 6-1.25a179.31 179.31 0 0 0 18.55-5.24 194.54 194.54 0 0 0 31.27-13.82c1.64 7.53 3.21 14.7 4.67 21.39 1.16 5.27 2.24 10.26 3.26 14.91 3.31 15.17 5.87 26.86 7.35 33.64H74.33c2.59-12.01 8.13-37.63 15.2-70.19Zm248 145.78-41 .89H19.17l15.39-61.55h288.13l7.83 31.3 3.94 15.77 3.41 13.63Zm9.8-41.85-3.78 2.74-7.73-30.91a7.49 7.49 0 0 0-7.27-5.68h-30.29q-4.49-20.54-8.65-39.62l6.89-2.93 45.88 32.5 4.9 43.85Zm43.2 37.9c-.65.19-1.31.36-2 .52-1.15.29-2.31.57-3.47.83-.56.14-1.11.26-1.67.37l-1.7.36c-.95.19-1.89.37-2.84.54s-1.7.31-2.55.44h-.07c-1 .17-2.11.33-3.16.47s-2 .27-3 .39l-2.67.28c-.65.07-1.29.13-1.94.18h-.14l-2.21.17-2.37.13c-.43 0-.87.05-1.31.06-.69 0-1.37.06-2.06.07H353.55l-6.06-24.24 7.84-5.84L390.8 492Zm17.84-6.05-46-32.59-4.9-43.85L402 376.42l45.35 14.25 17.89 52.89a143.44 143.44 0 0 1-56.92 42.55ZM496.75 362c0 .71-.09 1.42-.14 2.13s-.1 1.31-.16 1.95-.09 1-.14 1.46-.09 1-.15 1.45-.09.89-.15 1.33c-.26 2.22-.57 4.43-.95 6.63-.1.68-.22 1.37-.35 2.05a.29.29 0 0 1 0 .09c-.11.64-.23 1.29-.37 1.93 0 .14-.05.28-.08.42-.23 1.19-.48 2.38-.76 3.56-.05.25-.1.49-.16.73-.2.88-.42 1.76-.64 2.64-.17.68-.35 1.37-.53 2.06-.11.42-.23.84-.34 1.26-.42 1.52-.87 3-1.34 4.55q-1 3.19-2.13 6.33c-.31.86-.64 1.73-1 2.59s-.62 1.61-.95 2.41c-.14.34-.27.68-.42 1-.34.82-.69 1.65-1 2.46s-.7 1.59-1.06 2.37c-.11.25-.23.5-.34.74-.31.68-.63 1.35-1 2l-.3.62c-.42.87-.86 1.74-1.31 2.6s-.95 1.84-1.45 2.75-1 1.82-1.52 2.72q-.61 1.1-1.26 2.16c-.2.35-.41.69-.63 1l-.17.28-13.85-40.86 34.68-25.84ZM320.33 493l.43.1-.24-.06Z"></path></svg>