<svg xmlns="http://www.w3.org/2000/svg" viewBox="-0.5 -0.5 16 16" fill="none" id="Globe-Grid-Line--Streamline-Majesticons" height="16" width="16"><desc>Globe Grid Line Streamline Icon: https://streamlinehq.com</desc><path stroke="#91929E" stroke-linecap="round" stroke-linejoin="round" d="M13.747499999999999 5.320749999999999C12.066937499999998 0.511375 5.810375 -0.6751875 2.4856249999999998 3.184875C1.9443750000000002 3.81325 1.5260625 4.5378125 1.2525 5.320749999999999M13.747499999999999 5.320749999999999C13.985624999999999 6.0028125 14.115 6.7363125 14.115 7.5C14.1158125 8.242125 13.9915625 8.979125 13.747499999999999 9.68M13.747499999999999 5.320749999999999H1.2525M1.2525 5.320749999999999C1.0085 6.021375 0.88425 6.7580625 0.885 7.5C0.8841875 8.242125 1.0084374999999999 8.979125 1.2525 9.68M1.2525 9.68C2.9330625 14.4893125 9.189625 15.6759375 12.514375 11.815875C13.055625 11.1874375 13.4739375 10.4629375 13.747499999999999 9.68M1.2525 9.68H13.747499999999999" stroke-width="1"></path><path stroke="#91929E" stroke-linecap="round" stroke-linejoin="round" d="M7.5 14.115C11.1529375 10.4620625 11.1529375 4.5379375 7.5 0.885C3.8470625000000003 4.5379375 3.8470625000000003 10.4620625 7.5 14.115Z" stroke-width="1"></path></svg>