<svg width="800" height="800" viewBox="0 0 800 800" fill="none" xmlns="http://www.w3.org/2000/svg">
<path d="M0 0H800V800H0V0Z" fill="#7F00FF"/>
<path d="M371.039 304.514C385.102 304.514 392.133 307.736 392.133 314.182C392.133 318.283 389.789 325.705 385.102 336.447C380.414 347.092 376.508 354.709 373.383 359.299C370.258 363.889 367.182 366.184 364.154 366.184C361.127 366.184 357.514 364.963 353.314 362.521C349.115 359.982 344.818 357.248 340.424 354.318C336.127 351.291 330.609 348.41 323.871 345.676C317.133 342.941 310.492 341.379 303.949 340.988C294.184 375.949 288.715 395.285 287.543 398.996C286.469 402.707 284.809 406.467 282.562 410.275C280.316 414.084 277.631 417.209 274.506 419.65C271.381 422.092 268.158 424.094 264.838 425.656C261.615 427.219 257.66 428.391 252.973 429.172C230.805 432.59 209.32 431.76 188.52 426.682C176.898 423.85 167.621 420.383 160.688 416.281C153.754 412.082 150.287 408.029 150.287 404.123C150.58 401.877 151.654 400.119 153.51 398.85C155.268 397.482 157.367 396.799 159.809 396.799C168.793 396.799 175.385 395.383 179.584 392.551C183.881 389.621 187.934 384.299 191.742 376.584C195.551 368.771 199.115 360.08 202.436 350.51C205.854 340.939 208.979 332.15 211.811 324.143C214.643 316.135 217.914 307.98 221.625 299.68C229.73 281.809 240.082 269.846 252.68 263.791C265.277 257.736 284.369 254.709 309.955 254.709C325.189 254.709 332.807 257.248 332.807 262.326C332.807 264.279 331.879 267.062 330.023 270.676C322.699 284.445 315.961 301.291 309.809 321.213C318.109 316.818 327.777 312.961 338.812 309.641C349.945 306.223 360.688 304.514 371.039 304.514ZM415.717 274.045C401.557 261.643 384.271 251.633 363.861 244.016C343.549 236.301 323.041 232.443 302.338 232.443C289.936 232.443 274.994 234.104 257.514 237.424C240.033 240.646 227.094 244.162 218.695 247.971C210.297 251.682 204.779 253.537 202.143 253.537C198.92 253.537 197.309 252.023 197.309 248.996C197.309 245.871 199.994 242.111 205.365 237.717C210.736 233.322 218.549 228.781 228.803 224.094C239.154 219.406 250.824 215.012 263.812 210.91C293.5 201.73 326.02 197.141 361.371 197.141C384.418 197.141 403.705 198.117 419.232 200.07C448.041 203.488 462.445 208.957 462.445 216.477C462.152 220.48 460.199 227.121 456.586 236.398C452.973 245.676 448.676 254.562 443.695 263.059C438.715 271.457 434.613 276.145 431.391 277.121C429.34 277.707 426.996 278 424.359 278C421.82 278 418.939 276.682 415.717 274.045Z" fill="white"/>
<path d="M602.584 468.203C609.127 468.203 612.398 470.889 612.398 476.26C612.398 482.314 610.201 490.713 605.807 501.455C601.51 512.197 597.701 520.254 594.381 525.625C591.061 530.996 586.178 534.854 579.732 537.197C573.287 539.639 563.375 540.859 549.996 540.859C536.715 540.859 521.139 539.199 503.268 535.879C485.494 532.559 469.869 527.969 456.393 522.109C448.775 528.945 442.574 533.73 437.789 536.465C433.102 539.199 427.779 540.566 421.822 540.566C415.963 540.566 406.197 538.711 392.525 535C378.854 531.289 369.186 528.115 363.521 525.479C357.857 522.744 354.293 520.645 352.828 519.18C351.363 517.617 350.631 515.518 350.631 512.881C350.631 503.115 371.432 481.533 413.033 448.135C430.807 433.877 448.824 419.375 467.086 404.629C511.91 368.594 538.18 342.52 545.895 326.406C551.559 314.395 558.688 308.389 567.281 308.389C576.266 308.389 589.156 312.637 605.953 321.133C613.082 324.844 619.283 329.336 624.557 334.609C629.83 339.785 632.467 344.766 632.467 349.551C632.369 349.551 632.32 350.039 632.32 351.016C631.344 357.852 626.559 366.885 617.965 378.115C609.371 389.248 598.971 400.674 586.764 412.393C574.557 424.111 561.324 436.074 547.066 448.281C519.82 471.328 495.846 489.834 475.143 503.799C491.158 503.311 507.223 501.162 523.336 497.354C539.547 493.545 552.633 489.492 562.594 485.195C572.652 480.898 581.539 476.992 589.254 473.477C596.969 469.961 601.412 468.203 602.584 468.203ZM462.984 313.955C502.047 313.955 521.578 319.18 521.578 329.629C521.578 333.926 519.82 337.246 516.305 339.59C512.789 341.934 506.197 344.18 496.529 346.328C486.861 348.477 476.168 351.846 464.449 356.436C452.828 360.928 443.893 364.98 437.643 368.594C422.408 377.383 412.057 381.777 406.588 381.777C401.119 381.777 398.385 377.48 398.385 368.887C398.385 362.832 399.557 356.094 401.9 348.672C404.342 341.152 407.906 334.268 412.594 328.018C417.379 321.768 422.604 318.057 428.268 316.885C437.936 314.932 449.508 313.955 462.984 313.955Z" fill="white"/>
</svg>
